<mxfile host="Electron" modified="2023-08-25T12:52:42.600Z" agent="Mozilla/5.0 (Macintosh; Intel Mac OS X 10_15_7) AppleWebKit/537.36 (KHTML, like Gecko) draw.io/21.6.8 Chrome/114.0.5735.289 Electron/25.5.0 Safari/537.36" etag="s69A34NVRClcqmJc3wWw" version="21.6.8" type="device">
  <diagram name="Page-1" id="RzSv2MOk9Qq85wx4suoe">
    <mxGraphModel dx="2176" dy="1596" grid="1" gridSize="10" guides="1" tooltips="1" connect="1" arrows="1" fold="1" page="1" pageScale="1" pageWidth="827" pageHeight="1169" math="0" shadow="0">
      <root>
        <mxCell id="0" />
        <mxCell id="1" parent="0" />
        <mxCell id="Jk7oJnsNeds-7FqETyVs-13" value="" style="ellipse;whiteSpace=wrap;html=1;aspect=fixed;fillColor=none;" parent="1" vertex="1">
          <mxGeometry x="620" y="255" width="310" height="310" as="geometry" />
        </mxCell>
        <mxCell id="Jk7oJnsNeds-7FqETyVs-11" value="" style="ellipse;whiteSpace=wrap;html=1;aspect=fixed;fillColor=none;" parent="1" vertex="1">
          <mxGeometry x="245" y="600" width="310" height="310" as="geometry" />
        </mxCell>
        <mxCell id="Jk7oJnsNeds-7FqETyVs-2" value="" style="ellipse;whiteSpace=wrap;html=1;aspect=fixed;fillColor=none;" parent="1" vertex="1">
          <mxGeometry x="126" y="70" width="310" height="310" as="geometry" />
        </mxCell>
        <mxCell id="Jk7oJnsNeds-7FqETyVs-1" value="AWS Solutions Architect Associate" style="rounded=1;whiteSpace=wrap;html=1;fillColor=#d5e8d4;strokeColor=#82b366;fontStyle=1" parent="1" vertex="1">
          <mxGeometry x="221" y="195" width="120" height="60" as="geometry" />
        </mxCell>
        <mxCell id="Jk7oJnsNeds-7FqETyVs-3" value="project: aws-static-website-hosting" style="rounded=1;whiteSpace=wrap;html=1;" parent="1" vertex="1">
          <mxGeometry x="570" y="450" width="110" height="60" as="geometry" />
        </mxCell>
        <mxCell id="Jk7oJnsNeds-7FqETyVs-7" value="project: aws-alb-oidc-integration" style="rounded=1;whiteSpace=wrap;html=1;fillColor=#d5e8d4;strokeColor=#82b366;" parent="1" vertex="1">
          <mxGeometry x="336" y="310" width="111" height="60" as="geometry" />
        </mxCell>
        <mxCell id="Jk7oJnsNeds-7FqETyVs-8" value="course: AWS SAA Practice Exams by Jon Bonso" style="rounded=1;whiteSpace=wrap;html=1;fillColor=#d5e8d4;strokeColor=#82b366;" parent="1" vertex="1">
          <mxGeometry x="390" y="160" width="111" height="60" as="geometry" />
        </mxCell>
        <mxCell id="Jk7oJnsNeds-7FqETyVs-9" value="project: nlb-lambda- authorizers" style="rounded=1;whiteSpace=wrap;html=1;" parent="1" vertex="1">
          <mxGeometry x="210" y="610" width="110" height="60" as="geometry" />
        </mxCell>
        <mxCell id="Jk7oJnsNeds-7FqETyVs-10" value="AWS Security Speciality" style="rounded=1;whiteSpace=wrap;html=1;fontStyle=1" parent="1" vertex="1">
          <mxGeometry x="340" y="725" width="120" height="60" as="geometry" />
        </mxCell>
        <mxCell id="Jk7oJnsNeds-7FqETyVs-12" value="AWS Developer Associate" style="rounded=1;whiteSpace=wrap;html=1;fontStyle=1" parent="1" vertex="1">
          <mxGeometry x="715" y="380" width="120" height="60" as="geometry" />
        </mxCell>
        <mxCell id="dB4YAGh_vs8icGCBKmcp-6" value="course: Ultimate AWS DVS-C02 ny Stephane Maarek" style="rounded=1;whiteSpace=wrap;html=1;" parent="1" vertex="1">
          <mxGeometry x="870" y="320" width="110" height="60" as="geometry" />
        </mxCell>
        <mxCell id="Jk7oJnsNeds-7FqETyVs-6" value="project: aws-cdk-sandbox" style="rounded=1;whiteSpace=wrap;html=1;fillColor=#d5e8d4;strokeColor=#82b366;" parent="1" vertex="1">
          <mxGeometry x="570" y="320" width="110" height="60" as="geometry" />
        </mxCell>
        <mxCell id="OM36t23uVtHAq-udWxaO-2" value="course: Ultimate AWS SAA-C03 by Stephane Maarek" style="rounded=1;whiteSpace=wrap;html=1;fillColor=#d5e8d4;strokeColor=#82b366;" parent="1" vertex="1">
          <mxGeometry x="226" y="45" width="110" height="60" as="geometry" />
        </mxCell>
        <mxCell id="Jk7oJnsNeds-7FqETyVs-5" value="project: aws-lambda-iam-audit" style="rounded=1;whiteSpace=wrap;html=1;fillColor=#d5e8d4;strokeColor=#82b366;" parent="1" vertex="1">
          <mxGeometry x="60" y="160" width="110" height="60" as="geometry" />
        </mxCell>
        <mxCell id="eTdSH_PXvWhoKIxnTQyA-2" value="certificate: AWS Cloud Practitioner" style="rounded=1;whiteSpace=wrap;html=1;fillColor=#d5e8d4;strokeColor=#82b366;" parent="1" vertex="1">
          <mxGeometry x="110" y="310" width="111" height="60" as="geometry" />
        </mxCell>
        <mxCell id="eTdSH_PXvWhoKIxnTQyA-4" value="" style="shape=flexArrow;endArrow=classic;html=1;rounded=0;" parent="1" edge="1">
          <mxGeometry width="50" height="50" relative="1" as="geometry">
            <mxPoint x="460" y="270" as="sourcePoint" />
            <mxPoint x="550" y="310" as="targetPoint" />
          </mxGeometry>
        </mxCell>
        <mxCell id="Vpfa96eEMdJVgbXGnEmK-1" value="" style="shape=flexArrow;endArrow=classic;html=1;rounded=0;" edge="1" parent="1">
          <mxGeometry width="50" height="50" relative="1" as="geometry">
            <mxPoint x="590" y="550" as="sourcePoint" />
            <mxPoint x="505" y="620" as="targetPoint" />
          </mxGeometry>
        </mxCell>
        <mxCell id="Vpfa96eEMdJVgbXGnEmK-3" value="course: AWS DA Practice Exams by Jon Bonso" style="rounded=1;whiteSpace=wrap;html=1;" vertex="1" parent="1">
          <mxGeometry x="870" y="450" width="111" height="60" as="geometry" />
        </mxCell>
        <mxCell id="Vpfa96eEMdJVgbXGnEmK-4" value="course: AWS DA Practice Exams by Stephane Maarek" style="rounded=1;whiteSpace=wrap;html=1;" vertex="1" parent="1">
          <mxGeometry x="719" y="540" width="111" height="60" as="geometry" />
        </mxCell>
        <mxCell id="Vpfa96eEMdJVgbXGnEmK-5" value="project: aws-github-integration" style="rounded=1;whiteSpace=wrap;html=1;fillColor=#f5f5f5;strokeColor=#666666;fontColor=#333333;" vertex="1" parent="1">
          <mxGeometry x="720" y="220" width="110" height="60" as="geometry" />
        </mxCell>
        <mxCell id="Vpfa96eEMdJVgbXGnEmK-7" value="..." style="rounded=1;whiteSpace=wrap;html=1;" vertex="1" parent="1">
          <mxGeometry x="490" y="770" width="110" height="60" as="geometry" />
        </mxCell>
        <mxCell id="Vpfa96eEMdJVgbXGnEmK-8" value="project: rds-jumphost-access" style="rounded=1;whiteSpace=wrap;html=1;" vertex="1" parent="1">
          <mxGeometry x="180" y="770" width="110" height="60" as="geometry" />
        </mxCell>
        <mxCell id="Vpfa96eEMdJVgbXGnEmK-9" value="project: rds-automated-iam" style="rounded=1;whiteSpace=wrap;html=1;" vertex="1" parent="1">
          <mxGeometry x="345" y="880" width="110" height="60" as="geometry" />
        </mxCell>
      </root>
    </mxGraphModel>
  </diagram>
</mxfile>
